<svg width="64" height="64" viewBox="0 0 64 64" fill="none" xmlns="http://www.w3.org/2000/svg">
<path fill-rule="evenodd" clip-rule="evenodd" d="M38.9067 48.7707L50.0053 31.3307L38.9067 13.896C37.776 12.1173 38.6933 9.33334 40.4133 9.33334H46.8427C48.1006 9.39587 49.238 10.101 49.8533 11.2L61.504 29.5093C62.1655 30.6258 62.1655 32.0142 61.504 33.1307L49.8667 51.4667C49.2513 52.5656 48.114 53.2708 46.856 53.3333H40.4133C38.6933 53.3333 37.776 50.5493 38.9067 48.7707Z" stroke="#248BF2" stroke-width="3" stroke-linecap="round" stroke-linejoin="round"/>
<path fill-rule="evenodd" clip-rule="evenodd" d="M16.4987 48.7707L27.5973 31.3333L16.4987 13.896C15.368 12.1173 16.2853 9.33334 18.0027 9.33334H22.7253C23.9835 9.39537 25.121 10.1007 25.736 11.2L37.3893 29.512C38.048 30.6293 38.048 32.0161 37.3893 33.1333L25.736 51.4667C25.121 52.566 23.9835 53.2713 22.7253 53.3333H18.0027C16.2853 53.3333 15.368 50.5493 16.4987 48.7707Z" stroke="#248BF2" stroke-width="3" stroke-linecap="round" stroke-linejoin="round"/>
<path d="M2 51.3333L16 31.3333L2 11.3333" stroke="#248BF2" stroke-width="3" stroke-linecap="round" stroke-linejoin="round"/>
</svg>
