<svg width="184" height="88" viewBox="0 0 184 88" fill="none" xmlns="http://www.w3.org/2000/svg">
<rect width="184" height="88" fill="url(#paint0_angular)"/>
<path d="M41.024 36.16C42.992 36.16 44.504 36.616 45.56 37.528C46.616 38.424 47.144 39.72 47.144 41.416C47.144 43.032 46.616 44.288 45.56 45.184C44.504 46.064 42.992 46.504 41.024 46.504H37.88V52H33.752V36.16H41.024ZM40.376 43.48C41.272 43.48 41.928 43.312 42.344 42.976C42.776 42.624 42.992 42.088 42.992 41.368C42.992 40.664 42.776 40.144 42.344 39.808C41.928 39.456 41.272 39.28 40.376 39.28H37.88V43.48H40.376ZM58.1113 39.76C58.6553 39.76 59.0873 39.848 59.4073 40.024L58.9753 43.48C58.8153 43.384 58.5993 43.304 58.3273 43.24C58.0553 43.16 57.7673 43.12 57.4633 43.12C56.6953 43.12 56.0553 43.368 55.5433 43.864C55.0313 44.344 54.7753 45.04 54.7753 45.952V52H50.6953V40H54.2953L54.4633 42.592C54.7513 41.68 55.1993 40.984 55.8073 40.504C56.4313 40.008 57.1993 39.76 58.1113 39.76ZM67.8271 39.76C69.8271 39.76 71.3791 40.312 72.4831 41.416C73.6031 42.504 74.1631 44.032 74.1631 46C74.1631 47.968 73.6031 49.504 72.4831 50.608C71.3791 51.696 69.8271 52.24 67.8271 52.24C65.8271 52.24 64.2671 51.696 63.1471 50.608C62.0431 49.504 61.4911 47.968 61.4911 46C61.4911 44.032 62.0431 42.504 63.1471 41.416C64.2671 40.312 65.8271 39.76 67.8271 39.76ZM67.8271 42.664C67.0591 42.664 66.4911 42.928 66.1231 43.456C65.7551 43.984 65.5711 44.832 65.5711 46C65.5711 47.168 65.7551 48.016 66.1231 48.544C66.4911 49.072 67.0591 49.336 67.8271 49.336C68.5951 49.336 69.1631 49.072 69.5311 48.544C69.8991 48.016 70.0831 47.168 70.0831 46C70.0831 44.832 69.8991 43.984 69.5311 43.456C69.1631 42.928 68.5951 42.664 67.8271 42.664ZM86.3229 51.328C85.9229 51.6 85.4109 51.824 84.7869 52C84.1789 52.16 83.5629 52.24 82.9389 52.24C81.5149 52.24 80.4269 51.936 79.6749 51.328C78.9229 50.72 78.5389 49.744 78.5229 48.4V42.904H76.4589V40H78.5229V37.312L82.6029 36.184V40H86.2029V42.904H82.6029V47.728C82.6029 48.8 83.1309 49.336 84.1869 49.336C84.8429 49.336 85.4189 49.16 85.9149 48.808L86.3229 51.328ZM95.0006 39.76C97.0006 39.76 98.5526 40.312 99.6566 41.416C100.777 42.504 101.337 44.032 101.337 46C101.337 47.968 100.777 49.504 99.6566 50.608C98.5526 51.696 97.0006 52.24 95.0006 52.24C93.0006 52.24 91.4406 51.696 90.3206 50.608C89.2166 49.504 88.6646 47.968 88.6646 46C88.6646 44.032 89.2166 42.504 90.3206 41.416C91.4406 40.312 93.0006 39.76 95.0006 39.76ZM95.0006 42.664C94.2326 42.664 93.6646 42.928 93.2966 43.456C92.9286 43.984 92.7446 44.832 92.7446 46C92.7446 47.168 92.9286 48.016 93.2966 48.544C93.6646 49.072 94.2326 49.336 95.0006 49.336C95.7686 49.336 96.3366 49.072 96.7046 48.544C97.0726 48.016 97.2566 47.168 97.2566 46C97.2566 44.832 97.0726 43.984 96.7046 43.456C96.3366 42.928 95.7686 42.664 95.0006 42.664ZM111.792 36.16C114.272 36.16 116.168 36.848 117.48 38.224C118.808 39.584 119.472 41.536 119.472 44.08C119.472 46.624 118.808 48.584 117.48 49.96C116.168 51.32 114.272 52 111.792 52H105.072V36.16H111.792ZM111.384 48.88C112.712 48.88 113.688 48.48 114.312 47.68C114.936 46.88 115.248 45.68 115.248 44.08C115.248 42.48 114.936 41.28 114.312 40.48C113.688 39.68 112.712 39.28 111.384 39.28H109.2V48.88H111.384ZM134.662 49.672C134.966 49.672 135.214 49.64 135.406 49.576L135.094 51.856C134.63 52.112 134.086 52.24 133.462 52.24C131.734 52.24 130.702 51.624 130.366 50.392C129.646 51.624 128.222 52.24 126.094 52.24C124.894 52.24 123.974 51.984 123.334 51.472C122.694 50.96 122.374 50.216 122.374 49.24C122.374 48.216 122.734 47.392 123.454 46.768C124.19 46.128 125.39 45.64 127.054 45.304L129.766 44.776V44.344C129.766 43.8 129.614 43.368 129.31 43.048C129.006 42.728 128.59 42.568 128.062 42.568C127.454 42.568 126.958 42.712 126.574 43C126.19 43.288 125.942 43.76 125.83 44.416L122.518 43.456C122.726 42.288 123.302 41.384 124.246 40.744C125.19 40.088 126.462 39.76 128.062 39.76C129.934 39.76 131.358 40.144 132.334 40.912C133.31 41.68 133.798 42.832 133.798 44.368V48.736C133.798 49.36 134.086 49.672 134.662 49.672ZM127.582 49.6C128.142 49.6 128.646 49.448 129.094 49.144C129.542 48.824 129.766 48.408 129.766 47.896V46.864L127.822 47.32C127.31 47.448 126.942 47.608 126.718 47.8C126.51 47.976 126.406 48.232 126.406 48.568C126.406 48.904 126.51 49.16 126.718 49.336C126.926 49.512 127.214 49.6 127.582 49.6ZM143.882 39.76C145.882 39.76 147.434 40.312 148.538 41.416C149.658 42.504 150.218 44.032 150.218 46C150.218 47.968 149.658 49.504 148.538 50.608C147.434 51.696 145.882 52.24 143.882 52.24C141.882 52.24 140.322 51.696 139.202 50.608C138.098 49.504 137.546 47.968 137.546 46C137.546 44.032 138.098 42.504 139.202 41.416C140.322 40.312 141.882 39.76 143.882 39.76ZM143.882 42.664C143.114 42.664 142.546 42.928 142.178 43.456C141.81 43.984 141.626 44.832 141.626 46C141.626 47.168 141.81 48.016 142.178 48.544C142.546 49.072 143.114 49.336 143.882 49.336C144.65 49.336 145.218 49.072 145.586 48.544C145.954 48.016 146.138 47.168 146.138 46C146.138 44.832 145.954 43.984 145.586 43.456C145.218 42.928 144.65 42.664 143.882 42.664Z" fill="white"/>
<defs>
<radialGradient id="paint0_angular" cx="0" cy="0" r="1" gradientUnits="userSpaceOnUse" gradientTransform="translate(92 44) rotate(154.44) scale(101.98 213.232)">
<stop stop-color="#207CD9"/>
<stop offset="1" stop-color="#248BF2"/>
</radialGradient>
</defs>
</svg>
