<svg width="24" height="24" viewBox="0 0 24 24" fill="none" xmlns="http://www.w3.org/2000/svg">
<path fill-rule="evenodd" clip-rule="evenodd" d="M19 24H5C2.239 24 0 21.761 0 19V5C0 2.239 2.239 0 5 0H19C21.762 0 24 2.239 24 5V19C24 21.761 21.762 24 19 24ZM19.115 14.469L17.493 15.01L18.054 16.687C18.274 17.366 17.915 18.105 17.234 18.324C16.467 18.541 15.802 18.11 15.592 17.507L15.032 15.828L11.69 16.946L12.25 18.624C12.511 19.426 11.961 20.319 11.029 20.319C10.443 20.319 9.962 19.943 9.789 19.443L9.228 17.765L7.607 18.305C6.851 18.523 6.177 18.093 5.965 17.485C5.746 16.807 6.106 16.067 6.786 15.848L8.407 15.309L7.327 12.093L5.705 12.632C4.802 12.888 4 12.239 4 11.406C4 10.861 4.339 10.351 4.885 10.175L6.507 9.636L5.945 7.959C5.725 7.279 6.086 6.54 6.767 6.321C7.447 6.101 8.187 6.46 8.407 7.14L8.969 8.817L12.309 7.699L11.75 6.021C11.481 5.195 12.073 4.319 12.979 4.319C13.525 4.319 14.035 4.658 14.212 5.203L14.773 6.881L16.393 6.341C17.073 6.121 17.814 6.481 18.034 7.16C18.255 7.839 17.894 8.577 17.214 8.797L15.592 9.337L16.673 12.552L18.295 12.013C19.123 11.745 20 12.335 20 13.238C20 13.784 19.66 14.293 19.115 14.469ZM13.12 10.184L9.78 11.301L10.859 14.519L14.2 13.403L13.12 10.184Z" fill="white"/>
</svg>
